<?xml version="1.0" encoding="UTF-8"?>
<svg id="Calque_1" xmlns="http://www.w3.org/2000/svg" version="1.1" viewBox="0 0 566.93 566.93">
  <!-- Generator: Adobe Illustrator 30.3.0, SVG Export Plug-In . SVG Version: 2.1.3 Build 182)  -->
  <defs>
    <style>
      .st0 {
        fill: #fff;
      }

      .st1 {
        fill: #6993a0;
      }
    </style>
  </defs>
  <rect class="st1" x="24.6" y="23.79" width="518.42" height="518.42" rx="129.13" ry="129.13"/>
  <g>
    <g>
      <path class="st0" d="M234.38,278.03l-96.3-136.2,20.4-5.4v141.6h-54.3V73.73h50.7l96,136.2-20.4,5.4V73.73h54.6v204.3h-50.7Z"/>
      <path class="st0" d="M309.68,278.03V73.73h77.4c19,0,33.9,2.2,44.7,6.6,10.8,4.4,18.4,10.85,22.8,19.35,4.4,8.5,6.6,18.95,6.6,31.35,0,9.4-1.8,17.65-5.4,24.75-3.6,7.1-8.7,12.65-15.3,16.65-6.6,4-14.4,6-23.4,6v-5.1c11.6,0,20.8,2.25,27.6,6.75,6.8,4.5,11.7,10.35,14.7,17.55,3,7.2,4.5,14.8,4.5,22.8,0,19.4-5.9,33.85-17.7,43.35-11.8,9.5-29.6,14.25-53.4,14.25h-83.1ZM363.98,98.93v151.8l-18.3-24.6h45.3c5.2,0,9.45-1.1,12.75-3.3,3.3-2.2,4.95-5.7,4.95-10.5s-1.6-8.3-4.8-10.5c-3.2-2.2-7.3-3.3-12.3-3.3h-45.9v-45.3h42c6,0,10.45-1.1,13.35-3.3,2.9-2.2,4.35-5.7,4.35-10.5s-1.45-8.3-4.35-10.5c-2.9-2.2-7.35-3.3-13.35-3.3h-41.1l17.4-26.7Z"/>
    </g>
    <g>
      <path class="st0" d="M103.73,492.27v-204.3h75.6c15,0,28.65,2.85,40.95,8.55s22.1,14.1,29.4,25.2c7.3,11.1,10.95,24.85,10.95,41.25s-3.65,30.15-10.95,41.25c-7.3,11.1-17.1,19.45-29.4,25.05-12.3,5.6-25.95,8.4-40.95,8.4h-34.2v-52.8h32.4c9.2,0,16.15-1.8,20.85-5.4,4.7-3.6,7.05-9.1,7.05-16.5s-2.35-12.7-7.05-16.5c-4.7-3.8-11.65-5.7-20.85-5.7h-32.7l13.2-11.7v163.2h-54.3ZM203.33,492.27l-40.2-81.6h59.4l40.2,81.6h-59.4Z"/>
      <path class="st0" d="M409.43,492.27l-96.3-136.2,20.4-5.4v141.6h-54.3v-204.3h50.7l96,136.2-20.4,5.4v-141.6h54.6v204.3h-50.7Z"/>
    </g>
  </g>
</svg>